<mxfile host="app.diagrams.net" modified="2023-06-23T07:59:44.084Z" agent="Mozilla/5.0 (Windows NT 10.0; Win64; x64) AppleWebKit/537.36 (KHTML, like Gecko) Chrome/114.0.0.0 Safari/537.36" etag="ZEI-omXJK2H5XquWIWvT" version="21.3.7" type="device">
  <diagram name="Page-1" id="qIDss1YLQUz6mbe_D_y8">
    <mxGraphModel dx="1050" dy="573" grid="1" gridSize="10" guides="1" tooltips="1" connect="1" arrows="1" fold="1" page="1" pageScale="1" pageWidth="850" pageHeight="1100" math="0" shadow="0">
      <root>
        <mxCell id="0" />
        <mxCell id="1" parent="0" />
        <mxCell id="fnhZ73DJG1DWCAHTHRzr-1" value="input the year" style="rounded=0;whiteSpace=wrap;html=1;fontStyle=2" vertex="1" parent="1">
          <mxGeometry x="250" y="70" width="120" height="60" as="geometry" />
        </mxCell>
        <mxCell id="fnhZ73DJG1DWCAHTHRzr-2" value="if not divisivble by 4" style="html=1;shadow=0;dashed=0;align=center;verticalAlign=middle;shape=mxgraph.arrows2.arrow;dy=0.6;dx=40;direction=south;notch=0;" vertex="1" parent="1">
          <mxGeometry x="275" y="130" width="70" height="100" as="geometry" />
        </mxCell>
        <mxCell id="fnhZ73DJG1DWCAHTHRzr-3" value="not a leap year" style="rounded=0;whiteSpace=wrap;html=1;" vertex="1" parent="1">
          <mxGeometry x="240" y="230" width="120" height="60" as="geometry" />
        </mxCell>
        <mxCell id="fnhZ73DJG1DWCAHTHRzr-4" value="if divisible by 4" style="html=1;shadow=0;dashed=0;align=center;verticalAlign=middle;shape=mxgraph.arrows2.arrow;dy=0.6;dx=40;notch=0;" vertex="1" parent="1">
          <mxGeometry x="370" y="65" width="100" height="70" as="geometry" />
        </mxCell>
        <mxCell id="fnhZ73DJG1DWCAHTHRzr-5" value="divsible by 100" style="rounded=1;whiteSpace=wrap;html=1;" vertex="1" parent="1">
          <mxGeometry x="470" y="70" width="120" height="60" as="geometry" />
        </mxCell>
        <mxCell id="fnhZ73DJG1DWCAHTHRzr-6" value="divisible by 100" style="html=1;shadow=0;dashed=0;align=center;verticalAlign=middle;shape=mxgraph.arrows2.arrow;dy=0.6;dx=40;direction=south;notch=0;" vertex="1" parent="1">
          <mxGeometry x="495" y="130" width="70" height="100" as="geometry" />
        </mxCell>
        <mxCell id="fnhZ73DJG1DWCAHTHRzr-7" value="" style="rounded=0;whiteSpace=wrap;html=1;" vertex="1" parent="1">
          <mxGeometry x="470" y="230" width="120" height="60" as="geometry" />
        </mxCell>
      </root>
    </mxGraphModel>
  </diagram>
</mxfile>
